<?xml version="1.0" encoding="utf-8"?>
<!-- Generator: Adobe Illustrator 22.0.1, SVG Export Plug-In . SVG Version: 6.00 Build 0)  -->
<svg version="1.1" id="Layer_1" xmlns="http://www.w3.org/2000/svg" xmlns:xlink="http://www.w3.org/1999/xlink" x="0px" y="0px"
	 viewBox="0 0 243.8 695.7" style="enable-background:new 0 0 243.8 695.7;" xml:space="preserve">
<style type="text/css">
	.st0{fill:#D1D3D4;}
	.st1{fill:#27666F;}
	.st2{fill:#76C5D0;}
	.st3{fill:#4C5324;}
	.st4{fill:#D6EAC8;}
</style>
<g>
	<circle class="st0" cx="122.4" cy="94.4" r="49.6"/>
	<polygon class="st0" points="33.7,426.2 33.7,694.8 123,426.2 	"/>
	<polygon class="st0" points="216.6,426.2 216.6,694.8 127.3,426.2 	"/>
	<polygon class="st1" points="230.4,507.9 16.1,507.9 32.2,356.3 215.2,356.3 	"/>
	<rect x="40.8" y="356.3" class="st2" width="166.3" height="83.6"/>
	<path class="st3" d="M106.7,356.3h32.6h104.2v-54.2c0-114.7-85.6-130.1-108.7-132.2l-16.3,17l-14.6-16.2
		C74.7,174.9,1.3,196,1.3,302.2l-0.8,54.2H106.7"/>
	<polygon class="st3" points="77.1,74.1 167.4,74.1 178.5,0.3 64.2,0.3 	"/>
	<rect x="89.9" y="241.9" class="st4" width="9.8" height="9.8"/>
	<rect x="89.9" y="268.8" class="st4" width="9.8" height="9.8"/>
	<path class="st4" d="M167.4,243.1h-38.3v36h13.8v27.5h9.8v-27.5h14.7V243.1z M140.6,247.8c2.9,0,5.2,2.3,5.2,5.2
		c0,2.9-2.3,5.2-5.2,5.2c-2.9,0-5.2-2.3-5.2-5.2C135.5,250.1,137.8,247.8,140.6,247.8z M135.5,267.7c0-2.9,2.3-5.2,5.2-5.2
		c2.9,0,5.2,2.3,5.2,5.2c0,2.9-2.3,5.2-5.2,5.2C137.8,272.8,135.5,270.5,135.5,267.7z M157,272.8c-2.9,0-5.2-2.3-5.2-5.2
		c0-2.9,2.3-5.2,5.2-5.2c2.9,0,5.2,2.3,5.2,5.2C162.1,270.5,159.8,272.8,157,272.8z M157,258.1c-2.9,0-5.2-2.3-5.2-5.2
		c0-2.9,2.3-5.2,5.2-5.2c2.9,0,5.2,2.3,5.2,5.2C162.1,255.8,159.8,258.1,157,258.1z"/>
	<path class="st0" d="M68,306.6V181.2C36.6,195.8,1.3,228.5,1.3,302.2l-0.8,54.2H160h-31.7l53.3-49.8H68z"/>
</g>
</svg>
