<?xml version="1.0" encoding="utf-8"?>
<!-- Generator: Adobe Illustrator 22.0.1, SVG Export Plug-In . SVG Version: 6.00 Build 0)  -->
<svg version="1.1" id="Layer_1" xmlns="http://www.w3.org/2000/svg" xmlns:xlink="http://www.w3.org/1999/xlink" x="0px" y="0px"
	 viewBox="0 0 365 646.3" style="enable-background:new 0 0 365 646.3;" xml:space="preserve">
<style type="text/css">
	.st0{fill:#D9D88F;}
	.st1{fill:#D6EAC8;}
	.st2{fill:#EFF0A7;}
	.st3{fill:#E5BDD9;}
	.st4{fill:#76C5D0;}
</style>
<g>
	<path class="st0" d="M230.1,126l82.1,265.3h51.3L298,190.4c0,0-7.5-28-29.1-46.4C250.2,128.2,230.1,126,230.1,126z"/>
	<circle class="st1" cx="205.3" cy="50.4" r="49.1"/>
	<path class="st2" d="M217,124.9h-13c-46.3,0-84.1,39.8-84.1,88.5v0.5v76.7V379H204h13h84.1v-88.5v-76.7v-0.5
		C301.1,164.7,263.2,124.9,217,124.9z"/>
	<polygon class="st1" points="119.9,379 119.9,645.2 208.4,379 	"/>
	<polygon class="st1" points="301.1,379 301.1,645.2 212.6,379 	"/>
	<rect x="119.9" y="309.9" class="st2" width="181.2" height="108.7"/>
	<rect x="142.4" y="309.9" class="st3" width="48.3" height="82.8"/>
	<path class="st1" d="M190.7,126l-82.1,265.3H57.3l65.5-200.9c0,0,7.5-28,29.1-46.4C170.6,128.2,190.7,126,190.7,126z"/>
	<polygon class="st4" points="63.9,252 51.9,607.8 39.9,252 	"/>
	<polygon class="st4" points="101.9,645.2 90.6,620.5 15.1,620.5 1.9,645.2 	"/>
</g>
</svg>
