<?xml version="1.0" encoding="utf-8"?>
<!-- Generator: Adobe Illustrator 22.0.1, SVG Export Plug-In . SVG Version: 6.00 Build 0)  -->
<svg version="1.1" id="Layer_1" xmlns="http://www.w3.org/2000/svg" xmlns:xlink="http://www.w3.org/1999/xlink" x="0px" y="0px"
	 viewBox="0 0 355 651.7" style="enable-background:new 0 0 355 651.7;" xml:space="preserve">
<style type="text/css">
	.st0{fill:#76C5D0;}
	.st1{fill:#CEEAE0;}
	.st2{fill:#27666F;}
	.st3{fill:#D2CDE7;}
	.st4{fill:#D6EAC8;}
</style>
<g>
	<circle class="st0" cx="97.8" cy="50.9" r="49.5"/>
	<path class="st1" d="M99.6,126H86.5c-46.6,0-84.8,40.1-84.8,89.2v0.5v77.3V382h84.8h13.1h84.8v-89.2v-77.3v-0.5
		C184.3,166.1,146.2,126,99.6,126z"/>
	<path class="st0" d="M9.2,178.7l181.3,102.8l144.4-138.8l-56.5-0.3l-86.1,79.8c0,0-142.4-82.7-147.7-84.2
		C19.5,152.5,9.2,178.7,9.2,178.7z"/>
	<polygon class="st0" points="3.2,382 3.2,650.2 92.3,382 	"/>
	<polygon class="st0" points="185.8,382 185.8,650.2 96.6,382 	"/>
	<polygon class="st2" points="193.8,421.9 1.8,421.9 1.8,312.3 184.3,312.3 	"/>
	<path class="st2" d="M184,207.2l70.7-65l23.8,0.1l-86.1,79.8l-8.1-4.7C184.3,217.6,184.2,209.8,184,207.2z"/>
	<polygon class="st3" points="300.2,26.9 300.2,2.8 284.6,2.8 284.6,26.9 272.2,26.9 272.2,142.5 312.6,142.5 312.6,26.9 	"/>
	<path class="st4" d="M352.7,69.4c0-1.5-0.1-2.9-0.3-4.4h-61.2c-0.2,1.4-0.3,2.9-0.3,4.4c0,16.3,12.7,29.7,28.7,30.9v42.3h4.7v-42.3
		C340.2,99,352.7,85.7,352.7,69.4z"/>
	<path class="st4" d="M312.4,84.3c0-1.2-0.1-2.3-0.3-3.5h-48.7c-0.2,1.1-0.3,2.3-0.3,3.5c0,13,10.1,23.6,22.8,24.6v33.6h3.8v-33.7
		C302.4,107.9,312.4,97.3,312.4,84.3z"/>
	<rect x="124.8" y="312.3" class="st0" width="48.6" height="83.5"/>
</g>
</svg>
