<?xml version="1.0" encoding="utf-8"?>
<!-- Generator: Adobe Illustrator 22.0.1, SVG Export Plug-In . SVG Version: 6.00 Build 0)  -->
<svg version="1.1" id="Layer_1" xmlns="http://www.w3.org/2000/svg" xmlns:xlink="http://www.w3.org/1999/xlink" x="0px" y="0px"
	 viewBox="0 0 410.3 627" style="enable-background:new 0 0 410.3 627;" xml:space="preserve">
<style type="text/css">
	.st0{fill:#D6EAC8;}
	.st1{fill:#E5BDD9;}
	.st2{fill:#4C5324;}
	.st3{fill:#B85DA4;}
	.st4{fill:#76C5D0;}
</style>
<g>
	<path class="st0" d="M112.1,121.9H99.6c-44.8,0-81.5,38.6-81.5,85.8v0.5v74.3v85.8h81.5h12.6h81.5v-85.8v-74.3v-0.5
		C193.7,160.5,157,121.9,112.1,121.9z"/>
	<path class="st1" d="M25.2,172.6l174.4,98.9l138.9-133.5l-54.3-0.2l-82.8,76.8c0,0-137-79.6-142.1-81
		C35.1,147.4,25.2,172.6,25.2,172.6z"/>
	<polygon class="st1" points="18,368.2 18,626.2 103.8,368.2 	"/>
	<polygon class="st1" points="193.7,368.2 193.7,626.2 107.9,368.2 	"/>
	<polygon class="st2" points="209.7,406.5 2.8,406.5 18,301.2 193.7,301.2 	"/>
	<path class="st3" d="M193.3,200.1l68-62.5l22.9,0.1l-82.8,76.8l-7.8-4.5C193.7,210,193.6,202.5,193.3,200.1z"/>
	<polygon class="st4" points="178.7,301.2 136.4,301.2 89.6,301.2 82.6,381.4 136.4,381.4 187.6,381.4 	"/>
	<path class="st0" d="M408.1,137.6C408,78.3,359.9,30.3,300.7,30.3s-107.3,48-107.4,107.2H408.1z"/>
	<path class="st1" d="M110.4,2.1C84.7,2.1,63.7,22.5,62.8,48h0v49c0,0,46.1,0.2,47.6,0.2c26.3,0,47.6-21.3,47.6-47.6
		C158,23.4,136.7,2.1,110.4,2.1z"/>
</g>
</svg>
